# xmcd
#
# Track frame offsets:
#	150
#	10391
#	30366
#	48581
#	61853
#	76970
#	92533
#	105872
#	125034
#	151079
#	167476
#	186281
#	198740
#
# Disc length: 2826 seconds
#
# Revision: 1
# Processed by: cddbd v1.5.2PL0 Copyright (c) Steve Scherf et al.
# Submitted via: audiograbber 1.83.01
#
DISCID=990b080d
DTITLE=Russel Burke - The Road...
DYEAR=1900
DGENRE=Country
TTITLE0=I Don't Listen To My Radio
TTITLE1=Long Black Train
TTITLE2=A Disco Ain't No Place For A Cowboy
TTITLE3=Best Of All Possible Worlds
TTITLE4=Troubadour
TTITLE5=Bandy The Rodeo Clown
TTITLE6=Drinkin' Bone
TTITLE7=My Strongest Weakness
TTITLE8=Land Of The Free
TTITLE9=The Road...
TTITLE10=When You Gonna Settle Down
TTITLE11=Singing Cowboy
TTITLE12=We Ride Again
EXTD=
EXTT0=
EXTT1=
EXTT2=
EXTT3=
EXTT4=
EXTT5=
EXTT6=
EXTT7=
EXTT8=
EXTT9=
EXTT10=
EXTT11=
EXTT12=
PLAYORDER=
